HIERARCHY
ROOT reference
{
  OFFSET 0 0 0
  CHANNELS 6 Xposition Yposition Zposition Zrotation Xrotation Yrotation
  JOINT Hips
  {
    OFFSET 45.9788 78.8911 93.1398
    CHANNELS 6 Xposition Yposition Zposition Zrotation Xrotation Yrotation
    JOINT Spine
    {
      OFFSET 0 7.3847 0
      CHANNELS 6 Xposition Yposition Zposition Zrotation Xrotation Yrotation
      JOINT Spine1
      {
        OFFSET 0 22.52 0
        CHANNELS 6 Xposition Yposition Zposition Zrotation Xrotation Yrotation
        JOINT Neck
        {
          OFFSET 0 22.4276 2.03887
          CHANNELS 6 Xposition Yposition Zposition Zrotation Xrotation Yrotation
          JOINT Head
          {
            OFFSET 0 12.608 -1.80115
            CHANNELS 6 Xposition Yposition Zposition Zrotation Xrotation Yrotation
            End Site
            {
              OFFSET 0 22.5143 0
            }
          }
        }
        JOINT LeftShoulder
        {
          OFFSET 3.70204 19.5563 -0.329131
          CHANNELS 6 Xposition Yposition Zposition Zrotation Xrotation Yrotation
          JOINT LeftArm
          {
            OFFSET 13.7086 0 0
            CHANNELS 6 Xposition Yposition Zposition Zrotation Xrotation Yrotation
            JOINT LeftForeArm
            {
              OFFSET 25.9307 0 0
              CHANNELS 6 Xposition Yposition Zposition Zrotation Xrotation Yrotation
              JOINT LeftHand
              {
                OFFSET 23.5097 0 0
                CHANNELS 6 Xposition Yposition Zposition Zrotation Xrotation Yrotation
                End Site
                {
                  OFFSET 13.5086 0 0
                }
              }
            }
          }
        }
        JOINT RightShoulder
        {
          OFFSET -3.48695 19.5563 -0.329131
          CHANNELS 6 Xposition Yposition Zposition Zrotation Xrotation Yrotation
          JOINT RightArm
          {
            OFFSET -13.7086 0 0
            CHANNELS 6 Xposition Yposition Zposition Zrotation Xrotation Yrotation
            JOINT RightForeArm
            {
              OFFSET -25.9307 0 0
              CHANNELS 6 Xposition Yposition Zposition Zrotation Xrotation Yrotation
              JOINT RightHand
              {
                OFFSET -23.5097 0 0
                CHANNELS 6 Xposition Yposition Zposition Zrotation Xrotation Yrotation
                End Site
                {
                  OFFSET -13.5086 0 0
                }
              }
            }
          }
        }
      }
    }
    JOINT LeftUpLeg
    {
      OFFSET 9.00574 0 0
      CHANNELS 6 Xposition Yposition Zposition Zrotation Xrotation Yrotation
      JOINT LeftLeg
      {
        OFFSET 0 -37.3387 0
        CHANNELS 6 Xposition Yposition Zposition Zrotation Xrotation Yrotation
        JOINT LeftFoot
        {
          OFFSET 0 -36.155 0
          CHANNELS 6 Xposition Yposition Zposition Zrotation Xrotation Yrotation
          JOINT LeftToeBase
          {
            OFFSET 0 -5.85373 13.5086
            CHANNELS 6 Xposition Yposition Zposition Zrotation Xrotation Yrotation
            End Site
            {
              OFFSET 0 0 3.60229
            }
          }
        }
      }
    }
    JOINT RightUpLeg
    {
      OFFSET -9.00574 0 0
      CHANNELS 6 Xposition Yposition Zposition Zrotation Xrotation Yrotation
      JOINT RightLeg
      {
        OFFSET 0 -37.3387 0
        CHANNELS 6 Xposition Yposition Zposition Zrotation Xrotation Yrotation
        JOINT RightFoot
        {
          OFFSET 0 -36.155 0
          CHANNELS 6 Xposition Yposition Zposition Zrotation Xrotation Yrotation
          JOINT RightToeBase
          {
            OFFSET 0 -5.85373 13.5086
            CHANNELS 6 Xposition Yposition Zposition Zrotation Xrotation Yrotation
            End Site
            {
              OFFSET 0 0 3.60229
            }
          }
        }
      }
    }
  }
}
MOTION
Frames:	5
Frame Time:	0.004
0 0 0 0 0 -0 42.047 70.7681 -92.0386 3.77628 3.55825 -10.0407 3.55271e-015 7.3847 1.42109e-014 -8.9323 -2.40559 -5.19105 0 22.52 1.42109e-014 9.38219 11.4449 -5.94572 -3.55271e-015 22.4276 2.03887 12.0834 11.8915 9.64669 1.42109e-014 12.608 -1.80115 -17.8187 -5.93042 6.10349 3.70204 19.5563 -0.329131 1.54806 4.5945 -11.9599 13.7086 0 0 -54.6922 37.5521 -13.0491 25.9307 0 1.42109e-014 17.5354 -2.83998 -48.5795 23.5097 -1.42109e-014 -7.10543e-015 -4.84454 5.53026 -9.24398 -3.48695 19.5563 -0.329131 4.48371 14.2692 -3.16022 -13.7086 7.10543e-015 0 37.6878 25.0698 14.79 -25.9307 0 0 13.3344 19.2982 79.2767 -23.5097 0 -2.13163e-014 -34.9288 3.40223 16.2103 9.00574 0 0 11.0143 -43.0357 4.23917 -7.10543e-015 -37.3387 -7.10543e-015 -12.7986 39.3736 30.7563 0 -36.155 7.10543e-015 0.771656 0.590613 -6.52231 0 -5.85373 13.5086 -7.45443e-017 1.98785e-016 3.18055e-015 -9.00574 0 1.42109e-014 -19.6355 9.54444 5.10798 3.55271e-015 -37.3387 -1.42109e-014 7.55621 29.5326 -1.86393 -1.77636e-015 -36.155 0 12.9504 -19.1753 -6.47374 0 -5.85373 13.5086 1.59028e-015 3.18055e-015 -9.54166e-015 
0 0 0 0 0 -0 42.2471 70.8241 -91.653 3.7695 3.53248 -10.2573 3.55271e-015 7.3847 0 -8.72207 -2.39904 -5.06872 -3.55271e-015 22.52 0 8.9704 11.3795 -5.78161 -3.55271e-015 22.4276 2.03887 12.1997 11.9491 9.57981 0 12.608 -1.80115 -17.7825 -5.90604 6.04601 3.70204 19.5563 -0.329131 1.53407 4.45743 -12.2081 13.7086 0 2.84217e-014 -54.8599 37.2297 -13.1947 25.9307 -7.10543e-015 1.42109e-014 17.3027 -2.41629 -47.8249 23.5097 -7.10543e-015 0 -4.63732 5.69279 -9.30117 -3.48695 19.5563 -0.329131 4.73473 14.6168 -3.45496 -13.7086 0 0 38.0967 24.4498 14.8429 -25.9307 3.55271e-015 0 13.3832 19.3685 78.9311 -23.5097 0 0 -34.7402 3.54216 16.1835 9.00574 -7.10543e-015 0 10.8435 -42.7573 4.03439 0 -37.3387 7.10543e-015 -13.0155 39.4981 31.3955 0 -36.155 7.10543e-015 0.863724 -0.240136 -6.74182 1.42109e-014 -5.85373 13.5086 -2.23633e-016 0 -0 -9.00574 -7.10543e-015 0 -19.9545 9.54717 4.95898 0 -37.3387 0 7.49118 29.7437 -1.93417 1.77636e-015 -36.155 -1.42109e-014 13.1273 -18.233 -5.78114 -3.55271e-015 -5.85373 13.5086 0 3.18055e-015 -0 
0 0 0 0 0 -0 42.3803 70.8897 -91.3482 3.60628 3.67467 -10.6413 0 7.3847 -1.42109e-014 -8.4664 -2.3828 -4.87591 1.06581e-014 22.52 -1.42109e-014 8.62499 11.1508 -5.54335 3.55271e-015 22.4276 2.03887 12.3942 12.0294 9.47533 1.42109e-014 12.608 -1.80115 -17.7306 -5.84386 5.95753 3.70204 19.5563 -0.329131 1.60069 4.33314 -12.327 13.7086 1.42109e-014 -1.42109e-014 -54.9545 37.0788 -13.4536 25.9307 0 0 17.0273 -1.98628 -47.0672 23.5097 7.10543e-015 -3.55271e-015 -4.08872 5.82197 -9.45763 -3.48695 19.5563 -0.329131 5.02167 14.976 -3.73204 -13.7086 0 0 38.4002 24.6621 15.0147 -25.9307 -3.55271e-015 -2.84217e-014 12.8592 18.6349 78.8609 -23.5097 0 -1.42109e-014 -34.6472 3.32367 15.9074 9.00574 -7.10543e-015 0 11.175 -42.6603 4.37611 -7.10543e-015 -37.3387 0 -13.0814 39.7262 31.5889 0 -36.155 -7.10543e-015 0.828968 -0.78914 -6.82059 0 -5.85373 13.5086 -1.36664e-016 0 -1.59028e-015 -9.00574 0 0 -19.9711 9.19449 5.02472 1.77636e-015 -37.3387 1.42109e-014 7.38447 29.9714 -2.70282 0 -36.155 1.42109e-014 13.7131 -17.0711 -4.67298 0 -5.85373 13.5086 1.76556e-031 3.18055e-015 -3.18055e-015 
0 0 0 0 0 -0 42.5553 70.936 -91.0786 3.58723 3.97944 -11.0893 -3.55271e-015 7.3847 0 -8.24446 -2.59669 -4.69389 0 22.52 -1.42109e-014 8.25662 11.0499 -5.30706 0 22.4276 2.03887 12.5755 11.9546 9.43298 0 12.608 -1.80115 -17.757 -5.66014 5.91978 3.70204 19.5563 -0.329131 1.60762 4.11879 -12.372 13.7086 0 0 -55.0393 37.1001 -13.7173 25.9307 0 1.42109e-014 16.8482 -1.77871 -46.3422 23.5097 0 3.55271e-015 -3.99064 5.808 -9.29722 -3.48695 19.5563 -0.329131 5.21991 15.0195 -3.7975 -13.7086 0 0 38.8207 24.4817 14.8151 -25.9307 -3.55271e-015 0 12.8182 18.5105 78.6009 -23.5097 -7.10543e-015 7.10543e-015 -34.7678 3.277 15.8467 9.00574 0 -1.42109e-014 11.3779 -42.724 4.60194 7.10543e-015 -37.3387 7.10543e-015 -13.2093 39.8783 31.6321 0 -36.155 0 0.811365 -1.33385 -6.60024 0 -5.85373 13.5086 1.61513e-016 9.93923e-017 -1.59028e-015 -9.00574 -1.42109e-014 0 -20.2077 8.55661 5.13741 -3.55271e-015 -37.3387 -1.42109e-014 7.41366 30.3522 -2.89586 1.77636e-015 -36.155 0 13.9901 -16.1613 -4.19752 -7.10543e-015 -5.85373 13.5086 0 0 -3.18055e-015 
0 0 0 0 0 -0 42.6991 71.0433 -90.6918 3.3531 3.88539 -11.28 0 7.3847 1.42109e-014 -7.95097 -2.4704 -4.53051 -3.55271e-015 22.52 0 8.01179 11.0029 -5.13202 0 22.4276 2.03887 12.7752 11.7764 9.37083 7.10543e-015 12.608 -1.80115 -17.7707 -5.24245 5.88596 3.70204 19.5563 -0.329131 1.59674 3.86765 -12.588 13.7086 0 1.42109e-014 -55.2897 36.911 -13.8165 25.9307 7.10543e-015 0 16.5617 -1.38937 -45.6966 23.5097 7.10543e-015 0 -3.93239 5.95782 -9.38141 -3.48695 19.5563 -0.329131 5.44416 15.2516 -4.16195 -13.7086 -1.42109e-014 0 39.0274 24.478 14.953 -25.9307 0 0 12.6605 18.1366 78.3956 -23.5097 0 7.10543e-015 -34.6802 3.12498 15.6647 9.00574 -1.42109e-014 0 11.4083 -42.3101 4.48487 7.10543e-015 -37.3387 -7.10543e-015 -13.2821 40.0014 31.43 0 -36.155 0 0.842627 -2.03871 -6.20687 7.10543e-015 -5.85373 13.5086 -7.01958e-016 -4.96962e-017 -3.18055e-015 -9.00574 0 0 -20.2168 8.60311 5.13969 -4.44089e-015 -37.3387 1.42109e-014 7.29936 30.495 -3.03776 3.55271e-015 -36.155 0 13.9715 -14.9157 -3.85787 -3.55271e-015 -5.85373 13.5086 -1.59028e-015 0 3.18055e-015 
